<?xml version="1.0" encoding="utf-8"?>
<!-- Generator: Adobe Illustrator 25.2.3, SVG Export Plug-In . SVG Version: 6.00 Build 0)  -->
<svg version="1.1" id="Calque_1" xmlns="http://www.w3.org/2000/svg" xmlns:xlink="http://www.w3.org/1999/xlink" x="0px" y="0px"
	 viewBox="0 0 193.2 35" style="enable-background:new 0 0 193.2 35;" xml:space="preserve">
<style type="text/css">
	.st0{fill:#465FFF;}
</style>
<path d="M59.6,16.1c-0.4-0.7-0.9-1.2-1.6-1.6c-0.7-0.4-1.5-0.6-2.3-0.6c-0.9,0-1.8,0.2-2.6,0.7c-0.8,0.4-1.4,1.1-1.8,1.9
	c-0.4,0.9-0.6,1.8-0.6,2.8c0,1,0.2,2,0.7,2.9c0.4,0.8,1,1.5,1.8,1.9c0.8,0.4,1.7,0.7,2.7,0.6c1.1,0,2.2-0.3,3.1-1
	c0.8-0.7,1.4-1.7,1.6-2.8h-5.6v-2.5h8.8v2.9c-0.2,1.1-0.7,2.2-1.4,3.1c-0.7,1-1.7,1.8-2.8,2.3c-1.2,0.6-2.5,0.9-3.8,0.9
	c-1.5,0-3-0.3-4.3-1.1c-1.3-0.7-2.3-1.7-3-3c-0.7-1.3-1.1-2.8-1.1-4.3c0-1.5,0.3-3,1.1-4.3c0.7-1.3,1.7-2.3,3-3
	c2.8-1.5,6.3-1.4,9,0.3c1.4,0.9,2.3,2.2,2.8,3.8L59.6,16.1z"/>
<path d="M66.1,17.5c0.5-1,1.2-1.8,2.1-2.3c0.9-0.5,1.9-0.8,3-0.8c1.7,0,3.3,0.7,4.3,2.1v-1.8h3.3v13h-3.3v-1.9
	c-0.5,0.6-1,1.2-1.7,1.5c-0.8,0.4-1.7,0.6-2.6,0.6c-1.1,0-2.1-0.3-3-0.8c-0.9-0.6-1.7-1.4-2.1-2.4c-0.5-1.1-0.8-2.3-0.8-3.6
	C65.3,19.8,65.6,18.6,66.1,17.5z M75,19c-0.3-0.5-0.7-1-1.3-1.3c-1.6-0.9-3.6-0.4-4.5,1.2c0,0,0,0.1-0.1,0.1c-0.3,0.6-0.5,1.3-0.5,2
	c0,0.7,0.2,1.4,0.5,2c0.3,0.6,0.7,1,1.3,1.3c0.5,0.3,1.1,0.5,1.7,0.5c0.6,0,1.2-0.2,1.7-0.5c0.5-0.3,0.9-0.7,1.2-1.2
	c0.3-0.6,0.5-1.3,0.5-2C75.5,20.4,75.3,19.6,75,19z"/>
<path d="M86.9,15c0.7-0.4,1.5-0.6,2.3-0.6v3.4h-0.9c-0.8-0.1-1.7,0.2-2.3,0.7c-0.6,0.7-0.9,1.6-0.8,2.5v6.5H82v-13h3.3v2
	C85.7,15.9,86.3,15.4,86.9,15z"/>
<path d="M91.4,17.5c0.5-1,1.2-1.8,2.1-2.3c0.9-0.5,1.9-0.8,3-0.8c0.9,0,1.7,0.2,2.5,0.6c0.7,0.4,1.3,0.9,1.7,1.5v-1.8h3.3v13h-3.3
	v-1.9c-0.5,0.6-1,1.2-1.7,1.5c-0.8,0.4-1.7,0.6-2.6,0.6c-1.1,0-2.1-0.3-3-0.8c-0.9-0.6-1.6-1.4-2.1-2.4c-0.5-1.1-0.8-2.4-0.8-3.6
	C90.6,19.8,90.9,18.6,91.4,17.5z M100.4,19c-0.6-1.1-1.7-1.8-3-1.8c-1.2,0-2.4,0.6-3,1.7c-0.3,0.6-0.5,1.3-0.4,2
	c0,0.7,0.2,1.4,0.5,2c0.3,0.6,0.7,1,1.3,1.3c0.5,0.3,1.1,0.5,1.7,0.5c0.6,0,1.2-0.2,1.7-0.5c0.5-0.3,1-0.8,1.3-1.3
	c0.3-0.6,0.5-1.3,0.5-2C100.8,20.3,100.7,19.6,100.4,19L100.4,19z"/>
<path d="M114.9,15c0.7,0.3,1.3,0.8,1.7,1.5v-1.9h3.3v13c0,1.1-0.2,2.2-0.7,3.2c-0.5,0.9-1.2,1.7-2.2,2.2c-1.1,0.6-2.3,0.9-3.5,0.8
	c-1.6,0.1-3.2-0.4-4.6-1.3c-1.2-0.8-1.9-2.1-2-3.5h3.2c0.2,0.6,0.6,1.1,1.1,1.4c0.6,0.4,1.3,0.6,2.1,0.5c0.9,0,1.7-0.3,2.3-0.9
	c0.6-0.7,1-1.6,0.9-2.6v-2c-0.5,0.6-1,1.2-1.7,1.5c-0.8,0.4-1.6,0.6-2.5,0.6c-1.1,0-2.1-0.3-3-0.8c-0.9-0.6-1.7-1.4-2.1-2.4
	c-0.5-1.1-0.8-2.3-0.8-3.5c0-1.2,0.2-2.4,0.8-3.5c0.5-1,1.2-1.8,2.1-2.3c0.9-0.5,1.9-0.8,3-0.8C113.2,14.4,114.1,14.6,114.9,15z
	 M116.2,19c-0.6-1.1-1.7-1.8-3-1.8c-1.2,0-2.3,0.7-2.9,1.8c-0.3,0.6-0.5,1.3-0.5,2c0,0.7,0.2,1.4,0.5,2c0.3,0.6,0.7,1,1.3,1.3
	c0.5,0.3,1.1,0.5,1.7,0.5c0.6,0,1.2-0.2,1.7-0.5c0.5-0.3,1-0.8,1.3-1.3c0.3-0.6,0.5-1.3,0.5-2C116.7,20.3,116.5,19.6,116.2,19z"/>
<path d="M135.1,22.1h-9.5c0,0.8,0.4,1.6,1,2.2c0.6,0.5,1.3,0.8,2.1,0.8c1.1,0.1,2.1-0.6,2.6-1.6h3.5c-0.4,1.2-1.1,2.3-2.2,3.1
	c-1.1,0.8-2.5,1.3-3.9,1.2c-1.2,0-2.3-0.3-3.3-0.8c-1-0.5-1.8-1.4-2.3-2.4c-0.6-1.1-0.9-2.3-0.8-3.5c0-1.2,0.3-2.4,0.8-3.5
	c0.5-1,1.3-1.8,2.3-2.3c1-0.6,2.2-0.8,3.4-0.8c1.2,0,2.3,0.3,3.3,0.8c1,0.5,1.7,1.3,2.3,2.2c0.5,1,0.8,2.2,0.8,3.4
	C135.2,21.2,135.2,21.6,135.1,22.1z M131.8,19.9c0-0.8-0.3-1.5-0.9-2c-0.6-0.5-1.4-0.8-2.2-0.8c-0.7,0-1.4,0.3-2,0.7
	c-0.6,0.5-0.9,1.2-1,2L131.8,19.9z"/>
<path d="M153.1,24.4h-6.5l-1.1,3.1h-3.4l5.9-16.4h3.8l5.9,16.4h-3.5L153.1,24.4z M152.3,21.8l-2.4-6.8l-2.4,6.8L152.3,21.8z"/>
<path d="M164.9,15c0.8-0.4,1.6-0.6,2.5-0.6c2.2,0,4.2,1.2,5.1,3.1c0.5,1.1,0.8,2.3,0.8,3.5c0,1.2-0.2,2.4-0.8,3.5
	c-0.5,1-1.2,1.8-2.1,2.4c-0.9,0.6-1.9,0.9-3,0.8c-0.9,0-1.7-0.2-2.5-0.6c-0.7-0.4-1.3-0.9-1.8-1.5v8h-3.3V14.6h3.3v1.9
	C163.6,15.9,164.2,15.3,164.9,15z M169.5,19c-0.3-0.5-0.7-1-1.3-1.3c-0.5-0.3-1.1-0.4-1.7-0.4c-0.6,0-1.2,0.2-1.7,0.5
	c-0.5,0.3-1,0.8-1.3,1.3c-0.6,1.3-0.6,2.8,0,4.1c0.3,0.6,0.7,1,1.3,1.3c1,0.6,2.3,0.6,3.4,0c0.5-0.3,1-0.8,1.3-1.3
	c0.3-0.6,0.5-1.4,0.5-2.1C170,20.3,169.8,19.6,169.5,19L169.5,19z"/>
<path d="M180.8,15c0.8-0.4,1.6-0.6,2.5-0.6c2.2,0,4.2,1.2,5.1,3.1c0.5,1.1,0.8,2.3,0.8,3.5c0,1.2-0.2,2.4-0.8,3.5
	c-0.5,1-1.2,1.8-2.1,2.4c-0.9,0.6-1.9,0.9-3,0.8c-0.9,0-1.7-0.2-2.5-0.6c-0.7-0.3-1.3-0.8-1.8-1.4v8h-3.3V14.6h3.3v1.9
	C179.5,15.9,180.1,15.3,180.8,15z M185.4,19c-0.3-0.5-0.7-1-1.3-1.3c-0.5-0.3-1.1-0.4-1.7-0.4c-0.6,0-1.2,0.2-1.7,0.5
	c-0.5,0.3-1,0.8-1.3,1.3c-0.6,1.3-0.6,2.8,0,4.1c0.3,0.6,0.7,1,1.3,1.3c0.5,0.3,1.1,0.5,1.7,0.5c0.6,0,1.2-0.2,1.7-0.5
	c0.5-0.3,1-0.8,1.3-1.3c0.3-0.6,0.5-1.3,0.5-2.1C185.9,20.3,185.7,19.6,185.4,19z"/>
<path class="st0" d="M35,17.5c0,1.1-0.1,2.2-0.3,3.3c-1.8,9.5-11,15.7-20.5,13.8s-15.7-11-13.8-20.5C1,10.7,2.6,7.7,5,5.2l5.2,8.4
	c-0.6,1.2-1,2.5-0.9,3.8c0,4.6,3.7,8.2,8.3,8.2c3.3,0,6.3-2,7.6-5h-2.8v-8.1h12.1C34.8,14.2,35,15.8,35,17.5z"/>
<path class="st0" d="M32.9,9.2H17.5c-1.9,0-3.7,0.6-5.1,1.8L7.5,3.1c7.9-5.5,18.8-3.5,24.3,4.4C32.2,8.1,32.6,8.6,32.9,9.2z"/>
</svg>
