<?xml version="1.0" encoding="utf-8"?>
<!-- Generator: Adobe Illustrator 25.2.3, SVG Export Plug-In . SVG Version: 6.00 Build 0)  -->
<svg version="1.1" id="Calque_1" xmlns="http://www.w3.org/2000/svg" xmlns:xlink="http://www.w3.org/1999/xlink" x="0px" y="0px"
	 viewBox="0 0 32 32" style="enable-background:new 0 0 32 32;" xml:space="preserve">
<style type="text/css">
	.st0{fill:#465FFF;}
</style>
<path class="st0" d="M32,16c0,1-0.1,2-0.3,3c-1.7,8.7-10,14.4-18.7,12.7C4.3,30-1.4,21.7,0.3,13c0.6-3.1,2.1-6,4.3-8.2l4.7,7.7
	c-1.9,3.7-0.5,8.3,3.2,10.2s8.3,0.5,10.2-3.2c0.1-0.2,0.2-0.3,0.2-0.5h-2.4v-7.4h10.9C31.8,13,32,14.5,32,16z"/>
<path class="st0" d="M30.1,8.4H16c-1.7,0-3.4,0.6-4.7,1.6L6.9,2.8c7.3-5,17.2-3.2,22.3,4C29.5,7.4,29.8,7.9,30.1,8.4z"/>
</svg>
