<svg id="Calque_1" data-name="Calque 1" xmlns="http://www.w3.org/2000/svg" viewBox="0 0 193.22 34.98"><defs><style>.cls-1{fill:#1d1d1b;}.cls-2{fill:#465fff;}</style></defs><path class="cls-1" d="M59.56,16.15A3.76,3.76,0,0,0,58,14.58,4.67,4.67,0,0,0,55.73,14a5,5,0,0,0-2.57.66,4.55,4.55,0,0,0-1.76,1.87,6,6,0,0,0-.63,2.8,6,6,0,0,0,.65,2.86A4.52,4.52,0,0,0,53.2,24.1a5.39,5.39,0,0,0,2.67.65,4.61,4.61,0,0,0,3.06-1A4.73,4.73,0,0,0,60.5,21H54.89v-2.5h8.84v2.85a7.65,7.65,0,0,1-1.41,3.15,7.89,7.89,0,0,1-2.77,2.33,8.18,8.18,0,0,1-3.8.88,8.58,8.58,0,0,1-4.26-1.07,7.8,7.8,0,0,1-3-2.95,8.57,8.57,0,0,1-1.08-4.31,8.59,8.59,0,0,1,1.08-4.31,7.78,7.78,0,0,1,3-3,9.13,9.13,0,0,1,9,.28,6.91,6.91,0,0,1,2.81,3.78Z"/><path class="cls-1" d="M66.1,17.55a5.76,5.76,0,0,1,2.13-2.34,5.68,5.68,0,0,1,3-.82,5.21,5.21,0,0,1,4.28,2.06V14.6H78.8v13H75.51v-1.9a4.87,4.87,0,0,1-1.74,1.51,5.32,5.32,0,0,1-2.56.6,5.47,5.47,0,0,1-3-.84,5.94,5.94,0,0,1-2.13-2.38A7.51,7.51,0,0,1,65.31,21,7.38,7.38,0,0,1,66.1,17.55ZM75,19a3.25,3.25,0,0,0-1.26-1.31A3.32,3.32,0,0,0,69.14,19a4.05,4.05,0,0,0-.48,2,4.22,4.22,0,0,0,.48,2,3.47,3.47,0,0,0,1.26,1.34,3.13,3.13,0,0,0,1.67.47,3.32,3.32,0,0,0,1.71-.46A3.29,3.29,0,0,0,75,23.13a4.22,4.22,0,0,0,.47-2.05A4.18,4.18,0,0,0,75,19Z"/><path class="cls-1" d="M86.93,15a4.57,4.57,0,0,1,2.32-.58v3.43h-.86a3.34,3.34,0,0,0-2.33.73,3.33,3.33,0,0,0-.78,2.52v6.46H82v-13h3.27v2A4.57,4.57,0,0,1,86.93,15Z"/><path class="cls-1" d="M91.39,17.55a5.83,5.83,0,0,1,2.13-2.34,5.74,5.74,0,0,1,3-.82,5.25,5.25,0,0,1,2.53.59,5.05,5.05,0,0,1,1.74,1.47V14.6h3.3v13h-3.3v-1.9a4.87,4.87,0,0,1-1.74,1.51,5.29,5.29,0,0,1-2.56.6,5.52,5.52,0,0,1-3-.84,6,6,0,0,1-2.13-2.38A7.64,7.64,0,0,1,90.61,21,7.5,7.5,0,0,1,91.39,17.55Zm9,1.49a3.38,3.38,0,0,0-3-1.77A3.27,3.27,0,0,0,94.43,19,4.05,4.05,0,0,0,94,21a4.22,4.22,0,0,0,.48,2,3.47,3.47,0,0,0,1.26,1.34,3.16,3.16,0,0,0,1.68.47,3.32,3.32,0,0,0,1.7-.46,3.38,3.38,0,0,0,1.27-1.3,4.22,4.22,0,0,0,.46-2.05A4.18,4.18,0,0,0,100.34,19Z"/><path class="cls-1" d="M114.92,15a4.58,4.58,0,0,1,1.73,1.48V14.6H120V27.65a6.91,6.91,0,0,1-.73,3.22,5.37,5.37,0,0,1-2.17,2.24,7,7,0,0,1-3.51.83A7.47,7.47,0,0,1,109,32.65a4.75,4.75,0,0,1-2-3.5h3.25a2.41,2.41,0,0,0,1.11,1.41,3.88,3.88,0,0,0,2.07.53,3.19,3.19,0,0,0,2.31-.86,3.4,3.4,0,0,0,.89-2.58v-2a5,5,0,0,1-1.74,1.52,5.23,5.23,0,0,1-2.53.61,5.59,5.59,0,0,1-3-.84,6,6,0,0,1-2.14-2.38,7.64,7.64,0,0,1-.78-3.52,7.5,7.5,0,0,1,.78-3.48,5.83,5.83,0,0,1,2.13-2.34,5.74,5.74,0,0,1,3-.82A5.44,5.44,0,0,1,114.92,15ZM116.19,19a3.38,3.38,0,0,0-3-1.77A3.27,3.27,0,0,0,110.28,19a4.05,4.05,0,0,0-.48,2,4.22,4.22,0,0,0,.48,2,3.47,3.47,0,0,0,1.26,1.34,3.19,3.19,0,0,0,1.68.47,3.32,3.32,0,0,0,1.7-.46,3.38,3.38,0,0,0,1.27-1.3,4.22,4.22,0,0,0,.46-2.05A4.18,4.18,0,0,0,116.19,19Z"/><path class="cls-1" d="M135.1,22.06h-9.47a3.25,3.25,0,0,0,1,2.2,3,3,0,0,0,2.13.79,2.66,2.66,0,0,0,2.59-1.56h3.54a5.92,5.92,0,0,1-2.16,3.07,6.23,6.23,0,0,1-3.9,1.21,6.76,6.76,0,0,1-3.35-.83,5.89,5.89,0,0,1-2.32-2.35,7.28,7.28,0,0,1-.83-3.51,7.27,7.27,0,0,1,.82-3.53,5.8,5.8,0,0,1,2.29-2.34,6.91,6.91,0,0,1,3.39-.82,6.84,6.84,0,0,1,3.31.8,5.65,5.65,0,0,1,2.27,2.25,7,7,0,0,1,.8,3.36A7.93,7.93,0,0,1,135.1,22.06Zm-3.3-2.2a2.59,2.59,0,0,0-.91-2,3.26,3.26,0,0,0-2.17-.76,3,3,0,0,0-2,.74,3.27,3.27,0,0,0-1,2Z"/><path class="cls-1" d="M153.15,24.45h-6.5l-1.08,3.11h-3.43L148,11.21h3.82l5.86,16.35h-3.46Zm-.89-2.62L149.9,15l-2.36,6.83Z"/><path class="cls-1" d="M164.9,15a5.23,5.23,0,0,1,2.53-.6,5.61,5.61,0,0,1,5.13,3.15,7.48,7.48,0,0,1,.79,3.49,7.64,7.64,0,0,1-.79,3.52,6,6,0,0,1-2.12,2.38,5.57,5.57,0,0,1-3,.84,5.2,5.2,0,0,1-2.51-.59,5.46,5.46,0,0,1-1.77-1.47v8h-3.27V14.6h3.27v1.87A5,5,0,0,1,164.9,15Zm4.62,4a3.36,3.36,0,0,0-1.26-1.3,3.44,3.44,0,0,0-1.69-.44,3.18,3.18,0,0,0-1.67.46,3.3,3.3,0,0,0-1.27,1.32,4.53,4.53,0,0,0,0,4.06,3.3,3.3,0,0,0,1.27,1.32,3.27,3.27,0,0,0,3.36,0,3.44,3.44,0,0,0,1.26-1.33A4.18,4.18,0,0,0,170,21,4.05,4.05,0,0,0,169.52,19Z"/><path class="cls-1" d="M180.75,15a5.23,5.23,0,0,1,2.53-.6,5.61,5.61,0,0,1,5.13,3.15A7.48,7.48,0,0,1,189.2,21a7.64,7.64,0,0,1-.79,3.52,6,6,0,0,1-2.12,2.38,5.57,5.57,0,0,1-3,.84,5.2,5.2,0,0,1-2.51-.59A5.46,5.46,0,0,1,179,25.71v8h-3.27V14.6H179v1.87A5,5,0,0,1,180.75,15Zm4.62,4a3.29,3.29,0,0,0-1.26-1.3,3.41,3.41,0,0,0-1.69-.44,3.18,3.18,0,0,0-1.67.46,3.3,3.3,0,0,0-1.27,1.32,4.53,4.53,0,0,0,0,4.06,3.3,3.3,0,0,0,1.27,1.32,3.18,3.18,0,0,0,1.67.46,3.15,3.15,0,0,0,1.69-.47,3.37,3.37,0,0,0,1.26-1.33,4.18,4.18,0,0,0,.48-2.06A4.05,4.05,0,0,0,185.37,19Z"/><path class="cls-2" d="M35,17.49a17.68,17.68,0,0,1-.31,3.27A17.49,17.49,0,1,1,5,5.21l5.16,8.43a8.16,8.16,0,0,0-.95,3.85,8.25,8.25,0,0,0,15.82,3.27H23V12.64H34.29A17.28,17.28,0,0,1,35,17.49Z"/><path class="cls-2" d="M32.91,9.24H17.49A8.19,8.19,0,0,0,12.36,11L7.52,3.12A17.49,17.49,0,0,1,32.91,9.24Z"/></svg>